<svg width="1000" height="460" viewBox="0 0 1000 460" fill="none" xmlns="http://www.w3.org/2000/svg">
<g clip-path="url(#clip0_1_7)">
<path d="M516.216 118.919H640.541V145.946H721.622V118.919H781.081V91.8919H859.459V62.1622H900V29.7297H940.541V0H997.297V62.1622H975.676V118.919H954.054V145.946H932.432V178.378H900V202.703H859.459V256.757H818.919V318.919H781.081V348.649H756.757V378.378H721.622V410.811H681.081V432.432H648.649V440.541H627.027V459.459H572.973V451.351H462.162V459.459H437.838V440.541H405.405V459.459H343.243V435.135H316.216V410.811H300V383.784H262.162V364.865H240.541V343.243H202.703V316.216H100V294.595H45.9459V289.189H40.5405V264.865H24.3243V235.135H0V97.2973H24.3243V72.973H102.703V97.2973H83.7838V118.919H40.5405V200H62.1622V243.243L186.486 240.541V221.622H216.216V200H240.541V170.27H262.162V145.946H283.784V124.324H300V102.703H316.216V81.0811H397.297V102.703H405.405V91.8919H437.838V75.6757H462.162V91.8919H516.216V118.919Z" fill="#163764"/>
<path d="M643.243 118.919H518.919V91.8919H464.865V75.6757H435.135V91.8919H404.054V102.703H400H359.459V127.027H345.946V145.946H324.324V170.27H302.703V221.622H313.514V240.541L324.324 243.243V264.865H337.838V289.189H386.486V310.811H318.919V359.459H345.946V391.892H367.568V410.811H386.486V440.541H408.108H437.838V459.459H464.865V451.351H572.973V459.459H629.73V440.541H651.351V432.432H683.784V410.811H724.324V378.378H759.459V348.649H783.784V318.919H821.622V256.757H862.162V202.703H902.703V178.378H935.135V145.946H956.757V118.919H978.378V62.1622H1000V0H935.135V29.7297H897.297V62.1622H856.757V91.8919H778.378V118.919H716.216V145.946H643.243V118.919Z" fill="#3289CC"/>
</g>
<defs>
<clipPath id="clip0_1_7">
<rect width="1000" height="459.459" fill="white"/>
</clipPath>
</defs>
</svg>
